<?xml version="1.0" encoding="UTF-8" standalone="no"?>
<!-- Created with Inkscape (http://www.inkscape.org/) -->

<svg
   xmlns:dc="http://purl.org/dc/elements/1.1/"
   xmlns:cc="http://creativecommons.org/ns#"
   xmlns:rdf="http://www.w3.org/1999/02/22-rdf-syntax-ns#"
   xmlns:svg="http://www.w3.org/2000/svg"
   xmlns="http://www.w3.org/2000/svg"
   xmlns:sodipodi="http://sodipodi.sourceforge.net/DTD/sodipodi-0.dtd"
   xmlns:inkscape="http://www.inkscape.org/namespaces/inkscape"
   width="508.03629mm"
   height="611.81671mm"
   viewBox="0 0 508.03629 611.81671"
   version="1.1"
   id="svg8"
   inkscape:version="0.92.4 (5da689c313, 2019-01-14)"
   sodipodi:docname="Logo Club athlétique Brive Corrèze.svg">
  <defs
     id="defs2" />
  <sodipodi:namedview
     id="base"
     pagecolor="#ffffff"
     bordercolor="#666666"
     borderopacity="1.0"
     inkscape:pageopacity="0.0"
     inkscape:pageshadow="2"
     inkscape:zoom="0.35"
     inkscape:cx="701.49712"
     inkscape:cy="464.0855"
     inkscape:document-units="mm"
     inkscape:current-layer="layer1"
     showgrid="false"
     fit-margin-top="1"
     fit-margin-right="1"
     fit-margin-bottom="1"
     fit-margin-left="1"
     inkscape:window-width="1366"
     inkscape:window-height="705"
     inkscape:window-x="-8"
     inkscape:window-y="-8"
     inkscape:window-maximized="1" />
  <metadata
     id="metadata5">
    <rdf:RDF>
      <cc:Work
         rdf:about="">
        <dc:format>image/svg+xml</dc:format>
        <dc:type
           rdf:resource="http://purl.org/dc/dcmitype/StillImage" />
        <dc:title></dc:title>
      </cc:Work>
    </rdf:RDF>
  </metadata>
  <g
     inkscape:label="Calque 1"
     inkscape:groupmode="layer"
     id="layer1"
     transform="translate(202.61338,110.20597)">
    <g
       id="layer1-2"
       inkscape:label="Calque 1"
       transform="translate(-142.875,153.45833)">
      <g
         id="g4813"
         style="clip-rule:evenodd;fill-rule:evenodd"
         transform="matrix(3.4315837,0,0,3.4315837,-136.44515,-289.61939)">
        <path
           id="path4791"
           d="M 140.246,8.504 H 53.644 L 23.401,56.559 96.173,184.252 169.355,56.015 Z"
           stroke-miterlimit="2.613"
           inkscape:connector-curvature="0"
           style="fill:#ffffff;stroke:#000000;stroke-width:1.29799998;stroke-miterlimit:2.61299992" />
        <path
           id="path4793"
           d="M 112.361,33.008 V 11.635 H 80.939 v 21.373 z"
           stroke-miterlimit="2.613"
           inkscape:connector-curvature="0"
           style="fill:#ffffff;stroke:#000000;stroke-width:1.29799998;stroke-miterlimit:2.61299992" />
        <path
           id="path4795"
           d="M 131.887,33.008 V 11.635 h -16.459 v 21.373 z"
           stroke-miterlimit="2.613"
           inkscape:connector-curvature="0"
           style="stroke:#000000;stroke-width:1.29799998;stroke-miterlimit:2.61299992" />
        <path
           id="path4797"
           d="M 151.41,33.008 139.168,11.635 h -4.217 v 21.373 z"
           stroke-miterlimit="2.613"
           inkscape:connector-curvature="0"
           style="fill:#ffffff;stroke:#000000;stroke-width:1.29799998;stroke-miterlimit:2.61299992" />
        <path
           id="path4799"
           d="M 77.899,33.008 V 11.635 H 61.441 v 21.373 z"
           stroke-miterlimit="2.613"
           inkscape:connector-curvature="0"
           style="stroke:#000000;stroke-width:1.29799998;stroke-miterlimit:2.61299992" />
        <path
           id="path4801"
           d="M 58.49,33.008 V 11.635 H 55.633 L 42.031,33.008 Z"
           stroke-miterlimit="2.613"
           inkscape:connector-curvature="0"
           style="fill:#ffffff;stroke:#000000;stroke-width:1.29799998;stroke-miterlimit:2.61299992" />
        <path
           id="path4803"
           d="m 40.132,34.914 h 112.946 l 12.877,21.101 -11.178,19.762 H 37.684 L 26.235,56.559 Z"
           inkscape:connector-curvature="0" />
        <path
           id="path4805"
           d="M 96.173,177.945 110.678,152.08 V 78.395 H 81.205 v 73.685 z"
           stroke-miterlimit="2.613"
           inkscape:connector-curvature="0"
           style="fill:#ffffff;stroke:#000000;stroke-width:1.29799998;stroke-miterlimit:2.61299992" />
        <path
           id="path4807"
           d="M 78.292,147.996 V 78.395 h -18.59 v 35.566 z m 35.396,0 V 78.395 h 18.589 v 35.566 z"
           stroke-miterlimit="2.613"
           inkscape:connector-curvature="0"
           style="stroke:#000000;stroke-width:1.29799998;stroke-miterlimit:2.61299992" />
        <path
           id="path4809"
           d="m 39.316,78.395 h 17.683 v 31.937 z m 113.623,0 h -17.683 v 31.937 z"
           stroke-miterlimit="2.613"
           inkscape:connector-curvature="0"
           style="fill:#ffffff;stroke:#000000;stroke-width:1.29799998;stroke-miterlimit:2.61299992" />
        <path
           id="path4811"
           d="m 62.696,42.617 c -2.137,-0.631 -4.517,-0.947 -6.994,-0.947 -7.819,0 -13.017,2.819 -13.017,6.635 0,3.985 5.731,6.635 12.773,6.635 2.429,0 5.683,-0.316 7.383,-0.826 l 0.292,2.357 c -2.575,0.534 -5.731,0.607 -7.723,0.607 -10.734,0 -17.873,-3.451 -17.873,-8.847 0,-5.225 7.577,-8.701 17.921,-8.701 2.624,0 5.197,0.195 7.626,0.729 z m 30.498,-2.795 h 5.099 l 14.328,16.963 h -5.293 l -3.449,-4.277 h -16.61 l -3.449,4.277 h -5.1 z m 2.379,2.284 -6.75,8.409 h 13.501 z m 35.167,-2.284 h 9.18 c 7.041,0 11.898,1.142 11.898,4.277 0,2.333 -2.719,3.5 -6.994,4.034 v 0.049 c 4.615,0.195 7.869,1.702 7.869,4.083 0,3.646 -6.021,4.52 -12.92,4.52 h -9.033 z m 4.858,14.971 h 3.643 c 4.371,0 8.305,-0.461 8.305,-2.746 0,-2.625 -4.615,-2.99 -8.791,-2.99 h -3.156 v 5.736 z m 0,-7.729 h 2.67 c 4.711,0 8.693,-0.219 8.693,-2.722 0,-2.017 -3.447,-2.527 -6.264,-2.527 h -5.1 v 5.249 z M 51.294,63.171 c -1.018,-0.401 -2.15,-0.602 -3.329,-0.602 -3.723,0 -6.197,1.79 -6.197,4.213 0,2.531 2.729,4.213 6.082,4.213 1.156,0 2.705,-0.2 3.514,-0.524 l 0.139,1.497 c -1.226,0.34 -2.729,0.387 -3.676,0.387 -5.11,0 -8.509,-2.192 -8.509,-5.618 0,-3.318 3.607,-5.526 8.532,-5.526 1.249,0 2.474,0.124 3.629,0.463 z m 12.238,-1.96 c 4.901,0 7.769,2.377 7.769,5.572 0,3.272 -2.844,5.572 -7.769,5.572 -4.925,0 -7.77,-2.3 -7.77,-5.572 0,-3.195 2.868,-5.572 7.77,-5.572 z m 0,9.785 c 3.722,0 5.318,-2.067 5.318,-4.213 0,-2.192 -1.757,-4.229 -5.318,-4.213 -3.561,-0.016 -5.318,2.021 -5.318,4.213 -10e-4,2.145 1.595,4.213 5.318,4.213 z m 13.233,-9.6 h 3.954 c 3.191,0 6.267,0.34 6.267,2.917 0,1.312 -1.457,2.238 -3.329,2.454 v 0.031 c 0.716,0.185 1.063,0.416 1.572,1.08 l 3.052,4.291 h -2.635 l -2.475,-3.735 c -0.717,-1.05 -1.479,-1.05 -2.705,-1.05 h -1.387 v 4.785 H 76.767 V 61.396 Z m 2.312,4.631 h 1.965 c 2.196,0 3.492,-0.648 3.492,-1.683 0,-0.973 -1.11,-1.59 -3.237,-1.59 h -2.22 z M 93.21,61.396 h 3.954 c 3.191,0 6.266,0.34 6.266,2.917 0,1.312 -1.457,2.238 -3.33,2.454 v 0.031 c 0.717,0.185 1.064,0.416 1.572,1.08 l 3.053,4.291 h -2.637 l -2.473,-3.735 c -0.717,-1.05 -1.48,-1.05 -2.706,-1.05 h -1.388 v 4.785 H 93.21 Z m 2.312,4.631 h 1.966 c 2.195,0 3.49,-0.648 3.49,-1.683 0,-0.973 -1.109,-1.59 -3.236,-1.59 h -2.22 z m 14.388,-4.631 h 9.041 v 1.358 h -6.728 v 3.149 h 6.127 v 1.358 h -6.127 v 3.55 h 6.728 v 1.358 h -9.041 z m 13.74,9.384 8.371,-8.026 h -8.093 v -1.358 h 10.752 v 1.389 l -8.348,8.026 h 8.486 v 1.358 H 123.65 Z m 16.608,-9.384 h 9.041 v 1.358 h -6.729 v 3.149 h 6.127 v 1.358 h -6.127 v 3.55 h 6.729 v 1.358 h -9.041 z M 120.973,51.027 c 1.555,0 2.812,-0.875 2.812,-1.955 0,-1.079 -1.258,-1.956 -2.812,-1.956 -1.554,0 -2.812,0.876 -2.812,1.956 -0.001,1.079 1.257,1.955 2.812,1.955 z m -48.442,0 c 1.554,0 2.813,-0.875 2.813,-1.955 0,-1.079 -1.259,-1.956 -2.813,-1.956 -1.554,0 -2.813,0.876 -2.813,1.956 0,1.079 1.259,1.955 2.813,1.955 z"
           inkscape:connector-curvature="0"
           style="fill:#ffffff" />
      </g>
    </g>
  </g>
</svg>
